<?xml version="1.0" encoding="UTF-8"?>
<svg version="1.1" xmlns="http://www.w3.org/2000/svg" width="24" height="24">
<path d="M0 0 C4.62 0 9.24 0 14 0 C14 7.92 14 15.84 14 24 C9.38 24 4.76 24 0 24 C0 16.08 0 8.16 0 0 Z M3 5 C3 5.66 3 6.32 3 7 C3.99 7 4.98 7 6 7 C6 6.34 6 5.68 6 5 C5.01 5 4.02 5 3 5 Z M8 5 C8 5.66 8 6.32 8 7 C8.99 7 9.98 7 11 7 C11 6.34 11 5.68 11 5 C10.01 5 9.02 5 8 5 Z M3 9 C3 9.66 3 10.32 3 11 C3.99 11 4.98 11 6 11 C6 10.34 6 9.68 6 9 C5.01 9 4.02 9 3 9 Z M8 9 C8 9.66 8 10.32 8 11 C8.99 11 9.98 11 11 11 C11 10.34 11 9.68 11 9 C10.01 9 9.02 9 8 9 Z M3 13 C3 13.66 3 14.32 3 15 C3.99 15 4.98 15 6 15 C6 14.34 6 13.68 6 13 C5.01 13 4.02 13 3 13 Z M8 13 C8 13.66 8 14.32 8 15 C8.99 15 9.98 15 11 15 C11 14.34 11 13.68 11 13 C10.01 13 9.02 13 8 13 Z M3 17 C3 17.66 3 18.32 3 19 C3.99 19 4.98 19 6 19 C6 18.34 6 17.68 6 17 C5.01 17 4.02 17 3 17 Z M8 17 C8 17.66 8 18.32 8 19 C8.99 19 9.98 19 11 19 C11 18.34 11 17.68 11 17 C10.01 17 9.02 17 8 17 Z " fill="#FFFFFF" transform="translate(0,0)"/>
<path d="M0 0 C2.64 0 5.28 0 8 0 C8 6.27 8 12.54 8 19 C5.36 19 2.72 19 0 19 C0 12.73 0 6.46 0 0 Z M3 4 C3 4.66 3 5.32 3 6 C3.66 6 4.32 6 5 6 C5 5.34 5 4.68 5 4 C4.34 4 3.68 4 3 4 Z M3 8 C3 8.66 3 9.32 3 10 C3.66 10 4.32 10 5 10 C5 9.34 5 8.68 5 8 C4.34 8 3.68 8 3 8 Z M3 12 C3 12.66 3 13.32 3 14 C3.66 14 4.32 14 5 14 C5 13.34 5 12.68 5 12 C4.34 12 3.68 12 3 12 Z " fill="#FFFFFF" transform="translate(16,5)"/>
</svg>
