<?xml version="1.0" encoding="UTF-8"?>
<svg version="1.1" xmlns="http://www.w3.org/2000/svg" width="24" height="24">
<path d="M0 0 C3.12578143 1.6720747 5.39281175 3.7856235 7 7 C7.23828125 9.20703125 7.23828125 9.20703125 7.3125 11.8125 C7.34988281 12.66457031 7.38726563 13.51664063 7.42578125 14.39453125 C6.83073415 18.03578276 5.75130849 19.54331982 3 22 C0.09012681 22.51529004 -2.10896599 22.70356071 -5 22.625 C-6.06734375 22.65400391 -6.06734375 22.65400391 -7.15625 22.68359375 C-10.89188276 22.64874643 -12.66789861 22.30052281 -15.46484375 19.76953125 C-17.84912311 15.46812141 -17.90997974 11.78695222 -17 7 C-13.11414424 -0.14079767 -7.55903289 -1.0649786 0 0 Z M-9 4 C-9 4.33 -9 4.66 -9 5 C-7.02 5 -5.04 5 -3 5 C-3 4.67 -3 4.34 -3 4 C-4.98 4 -6.96 4 -9 4 Z M-13 8 C-13 10.64 -13 13.28 -13 16 C-12.67 16 -12.34 16 -12 16 C-12 13.36 -12 10.72 -12 8 C-12.33 8 -12.66 8 -13 8 Z M2 10 C2 11.98 2 13.96 2 16 C2.33 16 2.66 16 3 16 C3 14.02 3 12.04 3 10 C2.67 10 2.34 10 2 10 Z M-6 11 C-6 11.66 -6 12.32 -6 13 C-5.34 13 -4.68 13 -4 13 C-4 12.34 -4 11.68 -4 11 C-4.66 11 -5.32 11 -6 11 Z " fill="#FFFFFF" transform="translate(17,1)"/>
</svg>
