<?xml version="1.0" encoding="UTF-8"?>
<svg version="1.1" xmlns="http://www.w3.org/2000/svg" width="24" height="24">
<path d="M0 0 C-0.03480469 0.62648437 -0.06960938 1.25296875 -0.10546875 1.8984375 C-0.13253906 2.71570313 -0.15960938 3.53296875 -0.1875 4.375 C-0.22230469 5.18710938 -0.25710938 5.99921875 -0.29296875 6.8359375 C-0.19628906 7.55007813 -0.09960938 8.26421875 0 9 C0.99 9.66 1.98 10.32 3 11 C3.556875 10.34 4.11375 9.68 4.6875 9 C7 7 7 7 9.75 6.75 C10.4925 6.8325 11.235 6.915 12 7 C12.41223208 10.41652951 12.07028593 11.87999569 10.3046875 14.89453125 C3.84428719 22.65324353 3.84428719 22.65324353 -1.78125 23.7109375 C-5.625 23.6875 -5.625 23.6875 -12 23 C-12 18.71 -12 14.42 -12 10 C-10.68 9.67 -9.36 9.34 -8 9 C-8 6.03 -8 3.06 -8 0 C-4.71023192 -1.09658936 -3.28696233 -0.79953138 0 0 Z M-4 15 C-4 15.33 -4 15.66 -4 16 C-2.35 16 -0.7 16 1 16 C1 15.67 1 15.34 1 15 C-0.65 15 -2.3 15 -4 15 Z " fill="#FFFEFE" transform="translate(12,1)"/>
<path d="M0 0 C1.32 0.66 2.64 1.32 4 2 C3.67 3.65 3.34 5.3 3 7 C1.68 7.33 0.36 7.66 -1 8 C-1 7.34 -1 6.68 -1 6 C-1.66 5.67 -2.32 5.34 -3 5 C-3 3 -3 3 -1.5 1.375 C-1.005 0.92125 -0.51 0.4675 0 0 Z " fill="#FFFEFE" transform="translate(17,0)"/>
</svg>
