<?xml version="1.0" encoding="UTF-8"?>
<svg version="1.1" xmlns="http://www.w3.org/2000/svg" width="24" height="24">
<path d="M0 0 C2.01822917 0.06510417 4.03645833 0.13020833 6.0546875 0.1953125 C6.3846875 3.1653125 6.7146875 6.1353125 7.0546875 9.1953125 C9.3646875 9.5253125 11.6746875 9.8553125 14.0546875 10.1953125 C12.87890625 12.1796875 12.87890625 12.1796875 11.0546875 14.1953125 C8.57421875 14.5859375 8.57421875 14.5859375 5.8671875 14.4453125 C4.96613281 14.40921875 4.06507812 14.373125 3.13671875 14.3359375 C2.44964844 14.28953125 1.76257813 14.243125 1.0546875 14.1953125 C1.0546875 15.8453125 1.0546875 17.4953125 1.0546875 19.1953125 C1.66957031 19.13730469 2.28445312 19.07929688 2.91796875 19.01953125 C3.72621094 18.97441406 4.53445313 18.92929687 5.3671875 18.8828125 C6.16769531 18.82480469 6.96820313 18.76679688 7.79296875 18.70703125 C10.0546875 19.1953125 10.0546875 19.1953125 11.84765625 21.71484375 C12.24597656 22.53339844 12.64429687 23.35195313 13.0546875 24.1953125 C10.59606349 24.24915098 8.138612 24.28890288 5.6796875 24.3203125 C4.63167969 24.34544922 4.63167969 24.34544922 3.5625 24.37109375 C1.72571264 24.38875517 -0.11133213 24.29834511 -1.9453125 24.1953125 C-4.39518182 21.74544318 -4.20162561 21.0582345 -4.2109375 17.6953125 C-4.21351563 16.8084375 -4.21609375 15.9215625 -4.21875 15.0078125 C-4.20714844 13.615625 -4.20714844 13.615625 -4.1953125 12.1953125 C-4.20304688 11.2671875 -4.21078125 10.3390625 -4.21875 9.3828125 C-4.21617187 8.4959375 -4.21359375 7.6090625 -4.2109375 6.6953125 C-4.20868164 5.880625 -4.20642578 5.0659375 -4.20410156 4.2265625 C-3.84179186 1.38277312 -2.88576035 0.28973497 0 0 Z M1.0546875 5.1953125 C1.0546875 5.8553125 1.0546875 6.5153125 1.0546875 7.1953125 C1.7146875 7.1953125 2.3746875 7.1953125 3.0546875 7.1953125 C3.0546875 6.5353125 3.0546875 5.8753125 3.0546875 5.1953125 C2.3946875 5.1953125 1.7346875 5.1953125 1.0546875 5.1953125 Z M1.0546875 9.1953125 C1.0546875 9.8553125 1.0546875 10.5153125 1.0546875 11.1953125 C1.7146875 11.1953125 2.3746875 11.1953125 3.0546875 11.1953125 C3.0546875 10.5353125 3.0546875 9.8753125 3.0546875 9.1953125 C2.3946875 9.1953125 1.7346875 9.1953125 1.0546875 9.1953125 Z " fill="#FFFFFF" transform="translate(3.9453125,-0.1953125)"/>
<path d="M0 0 C0.66 0 1.32 0 2 0 C2 0.66 2 1.32 2 2 C2.99 2 3.98 2 5 2 C5 2.99 5 3.98 5 5 C3.68 5 2.36 5 1 5 C2.32 5.33 3.64 5.66 5 6 C5 7.98 5 9.96 5 12 C4.01 12 3.02 12 2 12 C2 12.66 2 13.32 2 14 C1.34 14 0.68 14 0 14 C0 13.34 0 12.68 0 12 C-0.99 12 -1.98 12 -3 12 C-3 11.01 -3 10.02 -3 9 C-1.68 9 -0.36 9 1 9 C-0.32 8.67 -1.64 8.34 -3 8 C-3 6.02 -3 4.04 -3 2 C-2.01 2 -1.02 2 0 2 C0 1.34 0 0.68 0 0 Z " fill="#FFFFFF" transform="translate(19,10)"/>
<path d="M0 0 C4.03384128 2.07143201 5.92856799 3.96615872 8 8 C5.36 8 2.72 8 0 8 C0 5.36 0 2.72 0 0 Z " fill="#FFFFFF" transform="translate(12,0)"/>
<path d="M0 0 C2.64 0 5.28 0 8 0 C8 0.99 8 1.98 8 3 C5.36 3 2.72 3 0 3 C0 2.01 0 1.02 0 0 Z " fill="#FFFFFF" transform="translate(6,15)"/>
</svg>
