<?xml version="1.0" encoding="UTF-8"?>
<svg version="1.1" xmlns="http://www.w3.org/2000/svg" width="24" height="24">
<path d="M0 0 C2.8125 2.4375 2.8125 2.4375 5 5 C5.33 5.33 5.66 5.66 6 6 C6.07179964 7.51928038 6.08392007 9.04167482 6.0625 10.5625 C6.05347656 11.38878906 6.04445313 12.21507812 6.03515625 13.06640625 C6.02355469 13.70449219 6.01195313 14.34257812 6 15 C8.97 15.495 8.97 15.495 12 16 C13.125 20.75 13.125 20.75 12 23 C6.19035367 24.70871951 0.98713359 24.71231679 -4.4375 22 C-5.63253055 21.34692828 -6.82289824 20.68485921 -8 20 C-8 19.01 -8 18.02 -8 17 C-5.29120665 15.64560332 -2.99066732 15.93498549 0 16 C0 14.02 0 12.04 0 10 C-0.886875 10.20625 -1.77375 10.4125 -2.6875 10.625 C-6.2252711 11.02550239 -7.86632967 10.56683516 -11 9 C-11 6.69 -11 4.38 -11 2 C-7.1783948 0.20159755 -4.2177461 -0.61508797 0 0 Z " fill="#FFFFFF" transform="translate(11,0)"/>
</svg>
