<?xml version="1.0" encoding="UTF-8"?>
<svg version="1.1" xmlns="http://www.w3.org/2000/svg" width="24" height="24">
<path d="M0 0 C2.64 0 5.28 0 8 0 C8 0.66 8 1.32 8 2 C9.65 2 11.3 2 13 2 C13 4.97 13 7.94 13 11 C8.38 11 3.76 11 -1 11 C-1 11.66 -1 12.32 -1 13 C-0.18015625 13 0.6396875 13 1.484375 13 C15.5 13 15.5 13 19 14 C19 16.64 19 19.28 19 22 C11.57142857 24.42857143 11.57142857 24.42857143 8 23 C8 23.33 8 23.66 8 24 C3.71 24 -0.58 24 -5 24 C-5 16.74 -5 9.48 -5 2 C-3.35 2 -1.7 2 0 2 C0 1.34 0 0.68 0 0 Z M-1 7 C-1 7.66 -1 8.32 -1 9 C2.3 9 5.6 9 9 9 C9 8.34 9 7.68 9 7 C5.7 7 2.4 7 -1 7 Z M-1 15 C-1 15.66 -1 16.32 -1 17 C1.31 17 3.62 17 6 17 C6.33 18.32 6.66 19.64 7 21 C8.01111093 17.95086772 8.01111093 17.95086772 7 15 C4.36 15 1.72 15 -1 15 Z M12 17 C12 17.66 12 18.32 12 19 C12.66 19 13.32 19 14 19 C14 18.34 14 17.68 14 17 C13.34 17 12.68 17 12 17 Z " fill="#FFFFFF" transform="translate(5,0)"/>
</svg>
