<?xml version="1.0" encoding="UTF-8"?>
<svg version="1.1" xmlns="http://www.w3.org/2000/svg" width="24" height="24">
<path d="M0 0 C0.66 0 1.32 0 2 0 C2 0.66 2 1.32 2 2 C3.65 2 5.3 2 7 2 C7 3.32 7 4.64 7 6 C7.30404678 7.67225729 7.63128912 9.34080104 8 11 C5.92446352 11.5534764 4.15634036 12 2 12 C2 12.66 2 13.32 2 14 C1.34 14 0.68 14 0 14 C0 13.34 0 12.68 0 12 C-1.65 12 -3.3 12 -5 12 C-5 10.68 -5 9.36 -5 8 C-5.30404678 6.32774271 -5.63128912 4.65919896 -6 3 C-3.92446352 2.4465236 -2.15634036 2 0 2 C0 1.34 0 0.68 0 0 Z M0 6 C0 6.66 0 7.32 0 8 C0.66 8 1.32 8 2 8 C2 7.34 2 6.68 2 6 C1.34 6 0.68 6 0 6 Z " fill="#FFFFFF" transform="translate(16,10)"/>
<path d="M0 0 C4.29 0 8.58 0 13 0 C11 4 11 4 9 7 C6.03 6.67 3.06 6.34 0 6 C0 4.02 0 2.04 0 0 Z M5 2 C6 5 6 5 6 5 Z " fill="#FFFFFF" transform="translate(0,8)"/>
<path d="M0 0 C2.5 0.125 2.5 0.125 3.5 1.125 C3.625 3.625 3.625 3.625 3.5 6.125 C2.5 7.125 2.5 7.125 0 7.25 C-2.5 7.125 -2.5 7.125 -3.5 6.125 C-3.625 3.625 -3.625 3.625 -3.5 1.125 C-2.5 0.125 -2.5 0.125 0 0 Z " fill="#FFFFFF" transform="translate(14.5,-0.125)"/>
<path d="M0 0 C2.5 0.125 2.5 0.125 3.5 1.125 C3.625 3.625 3.625 3.625 3.5 6.125 C2.5 7.125 2.5 7.125 0 7.25 C-2.5 7.125 -2.5 7.125 -3.5 6.125 C-3.625 3.625 -3.625 3.625 -3.5 1.125 C-2.5 0.125 -2.5 0.125 0 0 Z " fill="#FFFFFF" transform="translate(5.5,-0.125)"/>
<path d="M0 0 C2.31 0 4.62 0 7 0 C6.67 1.98 6.34 3.96 6 6 C4.02 6 2.04 6 0 6 C0 4.02 0 2.04 0 0 Z " fill="#FFFFFF" transform="translate(4,16)"/>
</svg>
