<?xml version="1.0" encoding="UTF-8"?>
<svg version="1.1" xmlns="http://www.w3.org/2000/svg" width="24" height="24">
<path d="M0 0 C1.134375 0.020625 2.26875 0.04125 3.4375 0.0625 C4.0975 1.3825 4.7575 2.7025 5.4375 4.0625 C6.0975 4.0625 6.7575 4.0625 7.4375 4.0625 C7.4375 3.4025 7.4375 2.7425 7.4375 2.0625 C8.18 1.918125 8.9225 1.77375 9.6875 1.625 C12.36430691 1.14293649 12.36430691 1.14293649 14.5625 0.3125 C16.4375 0.0625 16.4375 0.0625 18.25 1.25 C19.4375 3.0625 19.4375 3.0625 19.3125 4.9375 C18.26222587 7.48816574 16.92093669 9.74059909 15.4375 12.0625 C16.0975 12.0625 16.7575 12.0625 17.4375 12.0625 C19.76238647 15.69513511 19.67711213 18.82935233 19.4375 23.0625 C18.4375 24.0625 18.4375 24.0625 15 24.25 C11.4375 24.0625 11.4375 24.0625 9.4375 22.0625 C9.09388394 18.11091529 9.34848803 15.45714446 11.4375 12.0625 C12.0975 12.0625 12.7575 12.0625 13.4375 12.0625 C12.4475 10.4125 11.4575 8.7625 10.4375 7.0625 C9.4475 7.3925 8.4575 7.7225 7.4375 8.0625 C7.4375 7.4025 7.4375 6.7425 7.4375 6.0625 C6.98375 6.5575 6.53 7.0525 6.0625 7.5625 C4.4375 9.0625 4.4375 9.0625 2.4375 9.0625 C2.7675 10.0525 3.0975 11.0425 3.4375 12.0625 C2.7775 12.0625 2.1175 12.0625 1.4375 12.0625 C1.4375 12.7225 1.4375 13.3825 1.4375 14.0625 C2.7575 14.0625 4.0775 14.0625 5.4375 14.0625 C5.4375 17.3625 5.4375 20.6625 5.4375 24.0625 C2.1375 24.0625 -1.1625 24.0625 -4.5625 24.0625 C-4.5625 20.7625 -4.5625 17.4625 -4.5625 14.0625 C-3.2425 14.0625 -1.9225 14.0625 -0.5625 14.0625 C-0.5625 13.4025 -0.5625 12.7425 -0.5625 12.0625 C-1.2225 12.0625 -1.8825 12.0625 -2.5625 12.0625 C-4.88738647 8.42986489 -4.80211213 5.29564767 -4.5625 1.0625 C-3.5625 0.0625 -3.5625 0.0625 0 0 Z " fill="#FFFFFF" transform="translate(4.5625,-0.0625)"/>
</svg>
